<svg width="80" height="80" viewBox="0 0 80 80" xmlns="http://www.w3.org/2000/svg"><title>bkg_testimonial</title><g fill="#CCE6F4" fill-rule="evenodd"><path d="M40 77c20.435 0 37-16.565 37-37S60.435 3 40 3 3 19.565 3 40s16.565 37 37 37zm0 3C17.91 80 0 62.09 0 40S17.91 0 40 0s40 17.91 40 40-17.91 40-40 40z"/><path d="M38.172 46.25c0 1.333-.537 2.5-1.61 3.5-1.072 1-2.338 1.5-3.796 1.5-2.292 0-4.052-.76-5.282-2.28-1.23-1.522-1.843-3.626-1.843-6.314 0-2.5 1.06-5.02 3.175-7.562 2.115-2.542 4.662-4.47 7.64-5.782l1.376 2.22c-2.354 1.145-4.2 2.478-5.53 4-1.334 1.52-2.105 3.364-2.314 5.53h1.75c1.292 0 2.344.146 3.157.438.813.292 1.47.698 1.97 1.22.48.5.817 1.05 1.015 1.655.198.604.297 1.23.297 1.875zm15.406 0c0 1.333-.536 2.5-1.61 3.5-1.072 1-2.338 1.5-3.796 1.5-2.292 0-4.052-.76-5.28-2.28-1.23-1.522-1.845-3.626-1.845-6.314 0-2.5 1.057-5.02 3.172-7.562 2.11-2.542 4.66-4.47 7.64-5.782l1.37 2.22c-2.353 1.145-4.197 2.478-5.53 4-1.333 1.52-2.104 3.364-2.312 5.53h1.75c1.29 0 2.343.146 3.156.438.812.292 1.47.698 1.97 1.22.478.5.816 1.05 1.014 1.655.2.604.3 1.23.3 1.875z"/></g></svg>