<svg width="80" height="80" viewBox="0 0 80 80" xmlns="http://www.w3.org/2000/svg"><title>icon_glasses</title><g fill="none" fill-rule="evenodd"><circle fill="#0E84A1" cx="40" cy="40" r="40"/><path d="M43.803 36.922C42.97 36.336 41.78 36 40.5 36c-1.28 0-2.47.336-3.303.922C35.7 33.867 32.247 32 28 32c-4.754 0-8.514 2.34-9.648 6.066a1.02 1.02 0 0 0-.36-.066H16.01a1 1 0 0 0 0 2h2.003a8.23 8.23 0 0 0-.014.5c0 5.437 3.64 9.5 9 9.5 5.673 0 11-4.36 11-9.5a8.51 8.51 0 0 0-.13-1.5H38c0-.402 1.046-1 2.5-1s2.5.598 2.5 1h.13a8.51 8.51 0 0 0-.13 1.5c0 5.14 5.326 9.5 11 9.5 5.358 0 9-4.063 9-9.5 0-.17-.005-.335-.014-.5h2.003a1 1 0 0 0 0-2h-1.98c-.13 0-.25.023-.364.065C61.513 34.34 57.753 32 53 32c-4.247 0-7.7 1.867-9.197 4.922zM27 48c-4.202 0-7-3.122-7-7.5 0-3.893 3.296-6.5 8-6.5 4.704 0 8 2.607 8 6.5 0 3.937-4.352 7.5-9 7.5zm27 0c-4.648 0-9-3.563-9-7.5 0-3.893 3.296-6.5 8-6.5 4.704 0 8 2.607 8 6.5 0 4.378-2.798 7.5-7 7.5zM28.5 36c-3.68 0-6.5 2.052-6.5 5.22a1 1 0 0 0 2 0c0-1.9 1.81-3.22 4.5-3.22a1 1 0 0 0 0-2zM53 36c-3.405 0-6 2.078-6 5.22a1 1 0 0 0 2 0c0-1.927 1.614-3.22 4-3.22a1 1 0 0 0 0-2z" fill="#FFF"/></g></svg>