<svg width="80" height="80" viewBox="0 0 80 80" xmlns="http://www.w3.org/2000/svg"><title>icon_files</title><g fill="none" fill-rule="evenodd"><circle fill="#0E84A1" cx="40" cy="40" r="40"/><path d="M36 26.998v27.004C36 54 36 54 36.01 54h7.98c.007 0 .01-.003.01.002V26.998C44 27 44 27 43.99 27h-7.98c-.007 0-.01.003-.01-.002zm-2 0c0-1.103.902-1.998 2.01-1.998h7.98c1.11 0 2.01.894 2.01 1.998v27.004A2.005 2.005 0 0 1 43.99 56h-7.98C34.9 56 34 55.106 34 54.002V26.998zM38 30h4v2h-4v-2zm-16-3.002v27.004C22 54 22 54 22.01 54h7.98c.007 0 .01-.003.01.002V26.998C30 27 30 27 29.99 27h-7.98c-.007 0-.01.003-.01-.002zm-2 0c0-1.103.902-1.998 2.01-1.998h7.98c1.11 0 2.01.894 2.01 1.998v27.004A2.005 2.005 0 0 1 29.99 56h-7.98C20.9 56 20 55.106 20 54.002V26.998zM24 30h4v2h-4v-2zm26-3.002v27.004C50 54 50 54 50.01 54h7.98c.007 0 .01-.003.01.002V26.998C58 27 58 27 57.99 27h-7.98c-.007 0-.01.003-.01-.002zm-2 0c0-1.103.902-1.998 2.01-1.998h7.98c1.11 0 2.01.894 2.01 1.998v27.004A2.005 2.005 0 0 1 57.99 56h-7.98C48.9 56 48 55.106 48 54.002V26.998zM52 30h4v2h-4v-2z" fill="#FFF"/></g></svg>