<svg width="80" height="80" viewBox="0 0 80 80" xmlns="http://www.w3.org/2000/svg"><title>icon_cradle</title><g fill="none" fill-rule="evenodd"><path d="M40 80c22.09 0 40-17.91 40-40S62.09 0 40 0 0 17.91 0 40s17.91 40 40 40z" fill="#0E84A1"/><ellipse stroke="#FFF" stroke-width="2" fill="#0E84A1" cx="33.667" cy="54.667" rx="2.667" ry="2.667"/><ellipse stroke="#FFF" stroke-width="2" fill="#0E84A1" cx="46.667" cy="54.667" rx="2.667" ry="2.667"/><path d="M26 36h15V25h2c7.364 0 13 5.553 13 13 0 7.826-7.116 13-15 13-8.457 0-15-4.98-15-13v-2zm2 2c0 7.333 6.276 11 13 11 5.828 0 13-3.667 13-11 0-6.417-4.817-11-11-11v11H28z" fill="#FFF"/><path d="M28 31.28l-4.427-3.1-1.146 1.64L26 32.336V36h2v-4.72z" fill="#FFF"/></g><path fill="#FFF" d="M43 36h11v2H43z"/></svg>