<svg width="80" height="80" viewBox="0 0 80 80" xmlns="http://www.w3.org/2000/svg"><title>icon_mission</title><g fill="none" fill-rule="evenodd"><circle fill="#0E84A1" cx="40" cy="40" r="40"/><path d="M30 25v30c0 .002-.002 0-.003 0h22.006H52V25c0-.002.002 0 .003 0H29.997 30zm-2 0a2 2 0 0 1 1.997-2h22.006c1.103 0 1.997.892 1.997 2v30a2 2 0 0 1-1.997 2H29.997A1.996 1.996 0 0 1 28 55V25zm16 0v5l2-1 2 1v-5h-4zm-6 10h10v2H38v-2zm-4 0h2v2h-2v-2zm4 4h10v2H38v-2zm-4 0h2v2h-2v-2zm4 4h10v2H38v-2zm-4 0h2v2h-2v-2zm4 4h10v2H38v-2zm-4 0h2v2h-2v-2z" fill="#FFF"/></g></svg>