<svg width="80" height="80" viewBox="0 0 80 80" xmlns="http://www.w3.org/2000/svg"><title>icon_list</title><g transform="translate(-4000 -160)" fill="none" fill-rule="evenodd"><circle fill="#0E84A1" cx="4040" cy="200" r="40"/><g transform="translate(4025 183)" fill="#FFF"><ellipse cx="4" cy="4" rx="4" ry="4"/><path d="M11 1h19v2H11zm0 4h14v2H11z"/><ellipse cx="4" cy="17" rx="4" ry="4"/><path d="M11 14h19v2H11zm0 4h14v2H11zM4 32a2 2 0 1 0 0-4 2 2 0 0 0 0 4zm0 2a4 4 0 1 1 0-8 4 4 0 0 1 0 8zm7-7h19v2H11zm0 4h14v2H11z"/></g></g></svg>