<svg width="80" height="80" viewBox="0 0 80 80" xmlns="http://www.w3.org/2000/svg"><title>icon_talk</title><g fill="none" fill-rule="evenodd"><circle fill="#0E84A1" cx="40" cy="40" r="40"/><path d="M44.5 49C37.044 49 31 42.956 31 35.5S37.044 22 44.5 22 58 28.044 58 35.5a13.45 13.45 0 0 1-3.374 8.93l3.265 7.814-8.956-3.99A13.48 13.48 0 0 1 44.5 49zm8.28-3.8l-.482-1.156.828-.94A11.447 11.447 0 0 0 56 35.5C56 29.15 50.85 24 44.5 24S33 29.15 33 35.5 38.15 47 44.5 47a11.48 11.48 0 0 0 3.776-.634l.748-.26.722.322 4.385 1.952-1.35-3.18z" fill="#FFF"/><path d="M31 35.5c0 6.787 5.01 12.405 11.532 13.358A10.495 10.495 0 0 1 33.5 54a10.45 10.45 0 0 1-5.76-1.72L20 54l3.758-6.576A10.47 10.47 0 0 1 23 43.5c0-5.004 3.5-9.19 8.186-10.244A13.592 13.592 0 0 0 31 35.373a8.504 8.504 0 0 0-5.387 11.303l.362.9-.48.84-1.5 2.622 3.31-.71.826-.184.71.465A8.45 8.45 0 0 0 33.5 52a8.49 8.49 0 0 0 6.957-3.616C34.977 46.666 31 41.548 31 35.5z" fill="#FFF"/></g></svg>