<svg width="80" height="80" viewBox="0 0 80 80" xmlns="http://www.w3.org/2000/svg"><title>icon_magnifier</title><g fill="none" fill-rule="evenodd"><circle fill="#0E84A1" cx="40" cy="40" r="40"/><path d="M42.23 40.728l1.668 1.988a2.487 2.487 0 0 1 2.047.884l8.58 10.227a2.49 2.49 0 0 1-.312 3.515 2.498 2.498 0 0 1-3.517-.3l-8.58-10.228a2.484 2.484 0 0 1-.518-2.172l-1.667-1.986c-4.79 3.064-11.23 2.17-14.99-2.306-4.08-4.868-3.444-12.12 1.42-16.204 4.867-4.082 12.12-3.448 16.2 1.417 3.76 4.476 3.52 10.974-.33 15.164zm-2.373-.494A9.5 9.5 0 1 0 27.644 25.68a9.5 9.5 0 0 0 12.213 14.554zm-5.786-13.77a6.48 6.48 0 0 0-4.493 1.513 6.488 6.488 0 0 0-2.322 5.045 1 1 0 0 0 2-.02 4.488 4.488 0 0 1 1.608-3.493 4.48 4.48 0 0 1 3.115-1.05 1 1 0 1 0 .1-2z" fill="#FFF"/></g></svg>