<svg width="80" height="80" viewBox="0 0 80 80" xmlns="http://www.w3.org/2000/svg"><title>icon_checkmark</title><g fill="none" fill-rule="evenodd"><circle fill="#0E84A1" cx="40" cy="40" r="40"/><path d="M35.067 43.08l-5.212-5.396a1.994 1.994 0 0 0-2.823-.056l-.594.573a1.994 1.994 0 0 0-.042 2.827l8.427 8.726c.414.43.978.645 1.557.612l.12-.007.12.008a1.987 1.987 0 0 0 1.563-.607l15.43-15.98a2 2 0 0 0-.048-2.82l-.593-.57a1.99 1.99 0 0 0-2.82.05L37.945 43.08l-1.44 1.49-1.437-1.49zm2.828-2.828l10.82-11.204a3.99 3.99 0 0 1 5.646-.1l.597.573a4 4 0 0 1 .096 5.65l-15.43 15.976a3.99 3.99 0 0 1-3.126 1.214 3.995 3.995 0 0 1-3.11-1.22l-8.427-8.727a3.994 3.994 0 0 1 .09-5.652l.593-.57a3.994 3.994 0 0 1 5.652.104l3.82 3.957-.047.05h.097l1.34 1.39 1.343-1.39h.097l-.05-.05z" fill="#FFF"/></g></svg>