<svg width="80" height="80" viewBox="0 0 80 80" xmlns="http://www.w3.org/2000/svg"><title>icon_document</title><g fill="none" fill-rule="evenodd"><path d="M40 80c22.09 0 40-17.91 40-40S62.09 0 40 0 0 17.91 0 40s17.91 40 40 40z" fill="#0E84A1"/><path d="M46 27h2.01c1.1 0 1.99.895 1.99 1.997v22.006A1.998 1.998 0 0 1 48.01 53H31.99c-1.1 0-1.99-.895-1.99-1.997V49h14.01A2 2 0 0 0 46 47.003V27zM32 49v2.003S31.998 51 31.99 51h16.02c-.01 0-.01 0-.01.003V28.997s.002.003.01.003H46v18.003A1.998 1.998 0 0 1 44.01 49H32z" fill="#FFF"/><path d="M26 24.997c0-1.103.898-1.997 1.99-1.997h16.02c1.1 0 1.99.895 1.99 1.997v22.006A1.998 1.998 0 0 1 44.01 49H27.99c-1.1 0-1.99-.895-1.99-1.997V24.997zm2 0v22.006S27.998 47 27.99 47h16.02c-.01 0-.01 0-.01.003V24.997s.002.003.01.003H27.99c.01 0 .01 0 .01-.003z" fill="#FFF"/><path fill="#FFF" d="M30 33h12v2H30zm0 4h12v2H30zm0 4h12v2H30zm0-12h8v2h-8z"/><path d="M50 31h2.01c1.1 0 1.99.895 1.99 1.997v22.006A1.998 1.998 0 0 1 52.01 57H35.99c-1.1 0-1.99-.895-1.99-1.997V53h14.01A2 2 0 0 0 50 51.003V31zM36 53v2.003S35.998 55 35.99 55h16.02c-.01 0-.01 0-.01.003V32.997s.002.003.01.003H50v18.003A1.998 1.998 0 0 1 48.01 53H36z" fill="#FFF"/></g></svg>