<svg width="80" height="80" viewBox="0 0 80 80" xmlns="http://www.w3.org/2000/svg"><title>icon_scale</title><g fill="none" fill-rule="evenodd"><circle cx="40" cy="40" r="40" fill="#0E84A1"/><path d="M41 25v-2h-2v2H24v2h15v28h2V27h15v-2H41zm-8 30h14v2H33v-2zm-7-8.25c3.24 0 5.867-2.015 5.867-4.5H20.133c0 2.485 2.627 4.5 5.867 4.5zm-8-4.95V40h16v1.8c0 4.043-3.637 7.2-8 7.2-4.363 0-8-3.157-8-7.2zm3.61-1.8l4.31-10.068L30.244 40h2.162l-5.57-13H25l-5.547 13h2.157zM54 46.75c3.24 0 5.867-2.015 5.867-4.5H48.133c0 2.485 2.627 4.5 5.867 4.5zm-8-4.95V40h16v1.8c0 4.043-3.637 7.2-8 7.2-4.363 0-8-3.157-8-7.2zm3.61-1.8l4.31-10.068L58.244 40h2.162l-5.57-13H53l-5.547 13h2.157z" fill="#FFF"/></g></svg>