<svg width="102" height="20" viewBox="0 0 102 20" xmlns="http://www.w3.org/2000/svg"><title>logo</title><path d="M0 4.167V20h3.32V4.167c0-.417.413-.834.828-.834h7.467c.415 0 .83.417.83.834V20h3.32V4.167c0-2.5-1.66-4.167-4.15-4.167H4.148C1.658 0 0 1.667 0 4.167zM19.936 20h3.246V1.667C23.182.747 22.455 0 21.56 0c-.897 0-1.624.746-1.624 1.667V20zM43.118 3.333H31.503c-.415 0-.83.417-.83.834V7.5c0 .417.415.833.83.833h7.467c2.49 0 4.148 1.667 4.148 4.167v3.333c0 2.5-1.66 4.167-4.148 4.167H27.355v-3.333H38.97c.415 0 .83-.417.83-.834V12.5c0-.417-.415-.833-.83-.833h-7.467c-2.49 0-4.148-1.667-4.148-4.167V4.167c0-2.5 1.66-4.167 4.148-4.167h11.615v3.333zM50.146 20h-3.32V4.167c0-2.5 1.66-4.167 4.15-4.167h7.467c2.49 0 4.148 1.667 4.148 4.167V20h-3.316v-8.333h-9.126V20zm0-11.667V4.167c0-.417.415-.834.83-.834h7.467c.414 0 .83.417.83.834v4.166h-9.127zm19.936 3.334h8.133c.55 0 .994.443.994 1v3c0 .552-.444 1-.997 1H70.08v-5zm0-8.334h8.133c.55 0 .994.444.994 1v3c0 .553-.444 1-.997 1H70.08v-5zM66.764 0H78.38c2.488 0 4.147 1.667 4.147 4.167v5c0 .833-.83.833-.83.833s.83 0 .83.833v5c0 2.5-1.66 4.167-4.148 4.167H66.76V0zm22.79 11.667V20h-3.32V4.167c0-2.5 1.66-4.167 4.15-4.167h7.468C100.342 0 102 1.667 102 4.167V20h-3.32v-8.333h-9.125zm0-3.334V4.167c0-.417.416-.834.83-.834h7.468c.415 0 .83.417.83.834v4.166h-9.127z" fill="#0E84A1" fill-rule="evenodd"/></svg>